# xmcd CD database file
#
# Track frame offsets:
#	150
#	17212
#	45375
#	56900
#	68787
#	79937
#	103387
#	115875
#	131615
#	154500
#	167475
#	178750
#	203350
#	233350
#	267312
#
# Disc length: 3741 seconds
#
# Revision: 0
# Processed by: cddbd v1.5.1PL2 Copyright (c) Steve Scherf et al.
# Submitted via: CDex 1.51
#
DISCID=c30e9b0f
DTITLE=Kenzi and The Trips - 〆
DYEAR=1989
DGENRE=Punk
TTITLE0=Sweet Dreams, Baby
TTITLE1=Boy's Color
TTITLE2=Diana
TTITLE3=Cheeselita
TTITLE4=爆竹Girl [Live]
TTITLE5=Rock'n'Rock The Roll [Live]
TTITLE6=君が必遊
TTITLE7=Love Vacation
TTITLE8=Another Birthday
TTITLE9=Work Away
TTITLE10=傷だらけの Everyday
TTITLE11=逃げ出しそうな X'Mas
TTITLE12=黒猫
TTITLE13=ラ・ラ・ラ
TTITLE14=Bravo Johnny は今夜も Happy
EXTD=YEAR: 1989
EXTT0=
EXTT1=
EXTT2=
EXTT3=
EXTT4=
EXTT5=
EXTT6=
EXTT7=
EXTT8=
EXTT9=
EXTT10=
EXTT11=
EXTT12=
EXTT13=
EXTT14=
PLAYORDER=
